<?xml version="1.0" encoding="UTF-8" standalone="no"?><!DOCTYPE svg PUBLIC "-//W3C//DTD SVG 1.1//EN" "http://www.w3.org/Graphics/SVG/1.1/DTD/svg11.dtd"><svg width="100%" height="100%" viewBox="0 0 18 4" version="1.1" xmlns="http://www.w3.org/2000/svg" xmlns:xlink="http://www.w3.org/1999/xlink" xml:space="preserve" xmlns:serif="http://www.serif.com/" style="fill-rule:evenodd;clip-rule:evenodd;stroke-linejoin:round;stroke-miterlimit:2;"><g id="Logo"><rect x="0" y="0" width="17.9" height="3.6" style="fill:#fff;"/><g id="Vectr2.lua"><path id="V" d="M2.331,0.5l4.083,-0l0,0.25l-3.866,-0l-0.798,2.39l-0.376,-0l-0.874,-2.64l0.293,0l0.771,2.358l0.767,-2.358Z" style="fill-rule:nonzero;"/><path id="E" d="M3.105,2.342c0.018,0.179 0.083,0.322 0.196,0.429c0.112,0.106 0.259,0.16 0.44,0.16c0.127,-0 0.24,-0.026 0.34,-0.079c0.099,-0.052 0.173,-0.116 0.223,-0.194l0.175,0.12c-0.085,0.119 -0.186,0.209 -0.304,0.272c-0.118,0.062 -0.262,0.093 -0.434,0.093c-0.131,0 -0.251,-0.022 -0.36,-0.065c-0.109,-0.044 -0.203,-0.105 -0.283,-0.183c-0.079,-0.078 -0.141,-0.171 -0.184,-0.279c-0.044,-0.108 -0.066,-0.228 -0.066,-0.36c0,-0.128 0.02,-0.247 0.059,-0.355c0.04,-0.108 0.097,-0.202 0.171,-0.282c0.075,-0.079 0.165,-0.141 0.272,-0.185c0.107,-0.044 0.226,-0.066 0.358,-0.066c0.144,-0 0.27,0.024 0.378,0.072c0.108,0.049 0.198,0.116 0.27,0.201c0.072,0.086 0.125,0.188 0.16,0.306c0.034,0.119 0.052,0.251 0.052,0.395l-1.463,-0Zm1.199,-0.213c-0.028,-0.185 -0.095,-0.322 -0.202,-0.413c-0.106,-0.09 -0.238,-0.136 -0.394,-0.136c-0.08,0 -0.154,0.013 -0.222,0.039c-0.068,0.026 -0.128,0.063 -0.18,0.112c-0.052,0.048 -0.095,0.106 -0.131,0.174c-0.035,0.069 -0.057,0.143 -0.067,0.224l1.196,0Z" style="fill-rule:nonzero;"/><path id="C" d="M6.414,2.778c-0.071,0.111 -0.169,0.2 -0.293,0.266c-0.125,0.066 -0.272,0.099 -0.443,0.099c-0.132,0 -0.253,-0.022 -0.363,-0.065c-0.111,-0.044 -0.205,-0.105 -0.283,-0.183c-0.078,-0.078 -0.139,-0.171 -0.183,-0.279c-0.043,-0.108 -0.065,-0.228 -0.065,-0.36c-0,-0.128 0.02,-0.247 0.06,-0.357c0.04,-0.109 0.097,-0.203 0.171,-0.282c0.074,-0.078 0.164,-0.139 0.271,-0.183c0.108,-0.044 0.227,-0.066 0.358,-0.066c0.052,-0 0.105,0.006 0.16,0.018c0.054,0.012 0.106,0.03 0.154,0.055c0.048,0.025 0.092,0.055 0.131,0.089c0.039,0.035 0.068,0.076 0.087,0.123l0,-0.245l0.224,-0l-0,0.679l-0.224,0c0,-0.075 -0.014,-0.143 -0.041,-0.205c-0.027,-0.062 -0.064,-0.115 -0.112,-0.16c-0.047,-0.045 -0.103,-0.08 -0.169,-0.105c-0.065,-0.024 -0.135,-0.037 -0.21,-0.037c-0.102,0 -0.191,0.018 -0.267,0.053c-0.075,0.035 -0.139,0.083 -0.19,0.143c-0.051,0.061 -0.089,0.132 -0.115,0.214c-0.026,0.081 -0.039,0.17 -0.039,0.267c-0,0.097 0.015,0.186 0.044,0.268c0.03,0.082 0.073,0.152 0.129,0.211c0.057,0.06 0.125,0.107 0.204,0.142c0.079,0.035 0.169,0.053 0.268,0.053c0.126,-0 0.238,-0.025 0.336,-0.075c0.099,-0.05 0.174,-0.116 0.226,-0.198l0.174,0.12Z" style="fill-rule:nonzero;"/><path id="T" d="M8.343,2.562c-0.02,0.178 -0.09,0.319 -0.21,0.424c-0.121,0.105 -0.271,0.157 -0.452,0.157c-0.099,0 -0.19,-0.016 -0.273,-0.049c-0.082,-0.032 -0.152,-0.078 -0.21,-0.136c-0.059,-0.058 -0.104,-0.128 -0.136,-0.21c-0.032,-0.082 -0.048,-0.171 -0.048,-0.268l-0,-0.86l-0.384,0l0,-0.212l0.384,-0l-0,-0.678l0.249,-0l-0,0.678l0.722,-0l-0,0.212l-0.722,0l-0,0.86c-0,0.062 0.01,0.12 0.03,0.174c0.02,0.055 0.048,0.103 0.084,0.144c0.035,0.041 0.079,0.074 0.13,0.097c0.05,0.024 0.109,0.036 0.174,0.036c0.124,-0 0.227,-0.039 0.31,-0.116c0.083,-0.077 0.13,-0.176 0.143,-0.299l0.209,0.046Z" style="fill-rule:nonzero;"/><path id="R" d="M10.16,1.686c-0.09,-0.045 -0.196,-0.068 -0.32,-0.068c-0.102,0 -0.192,0.022 -0.272,0.066c-0.08,0.043 -0.148,0.1 -0.204,0.171c-0.056,0.071 -0.098,0.152 -0.128,0.243c-0.03,0.092 -0.045,0.186 -0.045,0.283l0,0.546l0.384,0l-0,0.213l-1.016,-0l-0,-0.213l0.383,0l0,-1.269l-0.383,0l-0,-0.212l0.632,-0l0,0.425c0.114,-0.31 0.331,-0.465 0.649,-0.465c0.086,-0 0.161,0.005 0.225,0.016c0.063,0.011 0.122,0.031 0.177,0.059l-0.082,0.205Z" style="fill-rule:nonzero;"/><path id="_2" serif:id="2" d="M12.045,1.384c-0,0.065 -0.006,0.124 -0.017,0.176c-0.012,0.052 -0.032,0.105 -0.062,0.158c-0.03,0.054 -0.069,0.11 -0.117,0.169c-0.049,0.06 -0.11,0.128 -0.184,0.204l-0.827,0.838l1.002,-0l-0,-0.465l0.212,-0l0,0.677l-1.541,0l-0,-0.219l0.923,-0.938c0.047,-0.048 0.093,-0.095 0.136,-0.142c0.043,-0.047 0.081,-0.095 0.115,-0.144c0.034,-0.048 0.061,-0.098 0.08,-0.15c0.019,-0.053 0.029,-0.107 0.029,-0.164c0,-0.145 -0.048,-0.255 -0.144,-0.33c-0.097,-0.074 -0.216,-0.112 -0.358,-0.112c-0.198,0 -0.349,0.055 -0.45,0.166c-0.102,0.11 -0.153,0.269 -0.153,0.478l-0.231,-0c0,-0.268 0.072,-0.478 0.215,-0.629c0.143,-0.152 0.349,-0.227 0.619,-0.227c0.102,-0 0.198,0.014 0.289,0.044c0.09,0.03 0.17,0.073 0.239,0.128c0.07,0.056 0.125,0.124 0.165,0.205c0.04,0.08 0.06,0.173 0.06,0.277Z" style="fill-rule:nonzero;"/><rect id="_." serif:id="." x="12.268" y="2.803" width="0.338" height="0.338" style="fill-rule:nonzero;"/><path id="L" d="M13.837,3.141l-1.014,0l-0,-0.212l0.38,-0l-0,-1.947l-0.38,0l-0,-0.212l0.632,-0l0,2.159l0.382,-0l-0,0.212Z" style="fill-rule:nonzero;"/><path id="U" d="M14.053,1.406l0.249,-0l0,1.047c0,0.151 0.033,0.268 0.099,0.351c0.066,0.083 0.172,0.125 0.319,0.125c0.091,-0 0.174,-0.021 0.248,-0.064c0.074,-0.042 0.137,-0.099 0.189,-0.17c0.052,-0.071 0.091,-0.152 0.119,-0.243c0.027,-0.092 0.04,-0.187 0.04,-0.287l0,-0.759l0.253,-0l0,1.694l-0.253,-0l0.002,-0.424c-0.118,0.31 -0.332,0.465 -0.64,0.465c-0.416,0 -0.625,-0.229 -0.625,-0.688l0,-1.047Z" style="fill-rule:nonzero;"/><path id="A" d="M15.785,2.642c0,-0.107 0.027,-0.196 0.08,-0.268c0.053,-0.073 0.123,-0.129 0.21,-0.171c0.086,-0.042 0.186,-0.072 0.298,-0.091c0.111,-0.019 0.226,-0.028 0.342,-0.028c0.044,-0 0.085,0 0.12,0.001c0.036,0.002 0.07,0.004 0.102,0.006c0.032,0.002 0.064,0.005 0.097,0.009c0.033,0.004 0.069,0.008 0.107,0.013l0,-0.122c0,-0.082 -0.018,-0.149 -0.053,-0.203c-0.036,-0.053 -0.08,-0.095 -0.132,-0.125c-0.052,-0.031 -0.107,-0.053 -0.164,-0.066c-0.057,-0.012 -0.105,-0.019 -0.145,-0.019c-0.126,0 -0.242,0.017 -0.349,0.051c-0.107,0.034 -0.206,0.08 -0.298,0.137l-0.113,-0.188c0.102,-0.062 0.216,-0.113 0.343,-0.153c0.126,-0.039 0.265,-0.059 0.417,-0.059c0.092,-0 0.183,0.012 0.272,0.035c0.089,0.024 0.169,0.06 0.24,0.109c0.071,0.049 0.128,0.114 0.171,0.194c0.043,0.08 0.064,0.176 0.064,0.287l-0,1.109l-0.253,-0l0.002,-0.284c-0.044,0.055 -0.093,0.103 -0.148,0.144c-0.055,0.041 -0.113,0.075 -0.174,0.101c-0.06,0.026 -0.121,0.046 -0.181,0.06c-0.061,0.014 -0.119,0.02 -0.173,0.02c-0.224,0 -0.394,-0.043 -0.509,-0.129c-0.115,-0.086 -0.173,-0.209 -0.173,-0.37Zm0.681,0.287c0.104,-0 0.198,-0.016 0.281,-0.047c0.082,-0.03 0.153,-0.069 0.211,-0.115c0.058,-0.046 0.103,-0.095 0.135,-0.147c0.032,-0.052 0.048,-0.1 0.048,-0.142l0,-0.16c-0.081,-0.012 -0.159,-0.019 -0.233,-0.02c-0.074,-0.001 -0.139,-0.002 -0.193,-0.002c-0.09,0 -0.176,0.006 -0.259,0.019c-0.083,0.012 -0.155,0.031 -0.217,0.059c-0.061,0.027 -0.111,0.062 -0.148,0.106c-0.038,0.044 -0.057,0.097 -0.057,0.162c0,0.071 0.035,0.137 0.105,0.197c0.069,0.06 0.178,0.09 0.327,0.09Z" style="fill-rule:nonzero;"/></g></g></svg>